<svg xmlns="http://www.w3.org/2000/svg" viewBox="0 0 60 60">
  <defs>
    <radialGradient id="jg" cx="40%" cy="35%" r="65%">
      <stop offset="0%" stop-color="#F5C842"/>
      <stop offset="60%" stop-color="#D4940A"/>
      <stop offset="100%" stop-color="#8B5A00"/>
    </radialGradient>
    <radialGradient id="jg2" cx="50%" cy="50%" r="50%">
      <stop offset="0%" stop-color="#8B5A00" stop-opacity="0"/>
      <stop offset="100%" stop-color="#5A3000" stop-opacity="0.5"/>
    </radialGradient>
  </defs>
  <!-- 주악 둥근 몸통 -->
  <circle cx="30" cy="32" r="22" fill="url(#jg)"/>
  <circle cx="30" cy="32" r="22" fill="url(#jg2)"/>
  <!-- 튀긴 표면 질감 -->
  <circle cx="30" cy="32" r="22" fill="none" stroke="#A06010" stroke-width="1" opacity="0.4"/>
  <path d="M14 24 Q18 20 22 24" stroke="#8B5A00" stroke-width="1.2" fill="none" opacity="0.35"/>
  <path d="M38 20 Q43 17 47 21" stroke="#8B5A00" stroke-width="1.2" fill="none" opacity="0.35"/>
  <path d="M12 36 Q16 40 20 37" stroke="#8B5A00" stroke-width="1" fill="none" opacity="0.3"/>
  <path d="M40 44 Q45 41 48 45" stroke="#8B5A00" stroke-width="1" fill="none" opacity="0.3"/>
  <!-- 광택 -->
  <ellipse cx="23" cy="24" rx="7" ry="5" fill="white" opacity="0.22" transform="rotate(-20 23 24)"/>
  <!-- 깨 -->
  <ellipse cx="26" cy="33" rx="1.5" ry="1" fill="#F5E8C0" transform="rotate(30 26 33)"/>
  <ellipse cx="32" cy="29" rx="1.5" ry="1" fill="#F5E8C0" transform="rotate(-20 32 29)"/>
  <ellipse cx="34" cy="38" rx="1.5" ry="1" fill="#F5E8C0" transform="rotate(50 34 38)"/>
  <ellipse cx="22" cy="40" rx="1.5" ry="1" fill="#F5E8C0" transform="rotate(10 22 40)"/>
  <ellipse cx="38" cy="32" rx="1.5" ry="1" fill="#F5E8C0" transform="rotate(-40 38 32)"/>
  <ellipse cx="28" cy="42" rx="1.5" ry="1" fill="#F5E8C0" transform="rotate(60 28 42)"/>
  <!-- 중앙 꽃모양 이음새 -->
  <circle cx="30" cy="32" r="3.5" fill="#C07810" opacity="0.6"/>
  <circle cx="30" cy="32" r="1.8" fill="#F0B030" opacity="0.7"/>
</svg>
