<svg xmlns="http://www.w3.org/2000/svg" viewBox="0 0 60 60">
  <defs>
    <radialGradient id="pg" cx="40%" cy="30%" r="70%">
      <stop offset="0%" stop-color="#E8A050"/>
      <stop offset="60%" stop-color="#B06020"/>
      <stop offset="100%" stop-color="#6B3500"/>
    </radialGradient>
  </defs>
  <!-- 강정 블록 베이스 -->
  <rect x="8" y="16" width="44" height="32" rx="8" fill="url(#pg)"/>
  <!-- 상단 면 (입체감) -->
  <rect x="8" y="16" width="44" height="10" rx="6" fill="#D08030" opacity="0.5"/>
  <!-- 피칸 조각들 -->
  <!-- 피칸 1 -->
  <ellipse cx="18" cy="30" rx="7" ry="5" fill="#5A2E0A" transform="rotate(-20 18 30)"/>
  <path d="M13 29 Q18 26 23 29 Q18 34 13 29" fill="#7A4010" opacity="0.7"/>
  <line x1="18" y1="25" x2="18" y2="35" stroke="#3A1A00" stroke-width="0.8" opacity="0.6"/>
  <!-- 피칸 2 -->
  <ellipse cx="31" cy="26" rx="7" ry="4.5" fill="#5A2E0A" transform="rotate(15 31 26)"/>
  <path d="M26 25 Q31 22 36 25 Q31 29 26 25" fill="#7A4010" opacity="0.7"/>
  <line x1="31" y1="22" x2="31" y2="30" stroke="#3A1A00" stroke-width="0.8" opacity="0.6"/>
  <!-- 피칸 3 -->
  <ellipse cx="43" cy="33" rx="7" ry="5" fill="#5A2E0A" transform="rotate(-10 43 33)"/>
  <path d="M38 32 Q43 28 48 32 Q43 37 38 32" fill="#7A4010" opacity="0.7"/>
  <line x1="43" y1="28" x2="43" y2="38" stroke="#3A1A00" stroke-width="0.8" opacity="0.6"/>
  <!-- 피칸 4 (작게) -->
  <ellipse cx="24" cy="41" rx="5.5" ry="4" fill="#5A2E0A" transform="rotate(25 24 41)"/>
  <line x1="24" y1="37" x2="24" y2="45" stroke="#3A1A00" stroke-width="0.7" opacity="0.5"/>
  <!-- 캐러멜 광택 -->
  <rect x="8" y="16" width="44" height="32" rx="8" fill="none" stroke="#C87020" stroke-width="1.5" opacity="0.4"/>
  <ellipse cx="20" cy="20" rx="8" ry="4" fill="white" opacity="0.12" transform="rotate(-10 20 20)"/>
</svg>
