<svg xmlns="http://www.w3.org/2000/svg" viewBox="0 0 60 60">
  <defs>
    <radialGradient id="wg" cx="40%" cy="35%" r="65%">
      <stop offset="0%" stop-color="#D4A044"/>
      <stop offset="55%" stop-color="#A06818"/>
      <stop offset="100%" stop-color="#6B3A00"/>
    </radialGradient>
    <radialGradient id="wnut" cx="45%" cy="40%" r="55%">
      <stop offset="0%" stop-color="#C8824A"/>
      <stop offset="100%" stop-color="#6B3A10"/>
    </radialGradient>
  </defs>
  <!-- 캐러멜 코팅 외부 -->
  <ellipse cx="30" cy="32" rx="22" ry="20" fill="url(#wg)"/>
  <!-- 호두 모양 (뇌 형태) -->
  <ellipse cx="22" cy="30" rx="10" ry="12" fill="url(#wnut)"/>
  <ellipse cx="38" cy="30" rx="10" ry="12" fill="url(#wnut)"/>
  <!-- 호두 주름 -->
  <path d="M22 19 Q18 24 22 30 Q18 36 22 41" stroke="#5A2A00" stroke-width="1.5" fill="none" opacity="0.6"/>
  <path d="M22 19 Q26 24 22 30 Q26 36 22 41" stroke="#5A2A00" stroke-width="1.2" fill="none" opacity="0.5"/>
  <path d="M38 19 Q34 24 38 30 Q34 36 38 41" stroke="#5A2A00" stroke-width="1.5" fill="none" opacity="0.6"/>
  <path d="M38 19 Q42 24 38 30 Q42 36 38 41" stroke="#5A2A00" stroke-width="1.2" fill="none" opacity="0.5"/>
  <!-- 중앙 분리선 -->
  <line x1="30" y1="18" x2="30" y2="42" stroke="#6B3A00" stroke-width="2" opacity="0.5"/>
  <!-- 캐러멜 광택 -->
  <ellipse cx="22" cy="24" rx="7" ry="5" fill="white" opacity="0.2" transform="rotate(-15 22 24)"/>
  <ellipse cx="38" cy="24" rx="6" ry="4" fill="white" opacity="0.15" transform="rotate(15 38 24)"/>
  <!-- 캐러멜 외부 테두리 -->
  <ellipse cx="30" cy="32" rx="22" ry="20" fill="none" stroke="#C88820" stroke-width="1.2" opacity="0.5"/>
</svg>
