<svg xmlns="http://www.w3.org/2000/svg" viewBox="0 0 60 60">
  <defs>
    <radialGradient id="jjg" cx="38%" cy="32%" r="65%">
      <stop offset="0%" stop-color="#E84040"/>
      <stop offset="55%" stop-color="#C02020"/>
      <stop offset="100%" stop-color="#6A0808"/>
    </radialGradient>
    <radialGradient id="jjg2" cx="50%" cy="50%" r="50%">
      <stop offset="0%" stop-color="#6A0808" stop-opacity="0"/>
      <stop offset="100%" stop-color="#2A0000" stop-opacity="0.5"/>
    </radialGradient>
  </defs>
  <!-- 대추 타원 몸통 -->
  <ellipse cx="30" cy="32" rx="17" ry="22" fill="url(#jjg)"/>
  <ellipse cx="30" cy="32" rx="17" ry="22" fill="url(#jjg2)"/>
  <!-- 대추 주름 줄기 -->
  <path d="M30 10 Q27 20 28 32 Q29 42 30 54" stroke="#8A0010" stroke-width="1" fill="none" opacity="0.5"/>
  <path d="M30 10 Q33 20 32 32 Q31 42 30 54" stroke="#8A0010" stroke-width="0.8" fill="none" opacity="0.4"/>
  <!-- 광택 -->
  <ellipse cx="24" cy="22" rx="5" ry="8" fill="white" opacity="0.22" transform="rotate(-15 24 22)"/>
  <ellipse cx="22" cy="20" rx="2.5" ry="4" fill="white" opacity="0.35" transform="rotate(-15 22 20)"/>
  <!-- 꼭지 -->
  <path d="M30 10 Q29 6 28 4 Q31 6 32 4 Q31 7 30 10" fill="#8B5020"/>
  <!-- 잣 장식 (상단) -->
  <ellipse cx="30" cy="13" rx="3" ry="5" fill="#F5D080" opacity="0.9"/>
  <ellipse cx="30" cy="13" rx="2" ry="4" fill="#E8B840"/>
  <line x1="30" y1="9" x2="30" y2="17" stroke="#C09020" stroke-width="0.8" opacity="0.6"/>
  <!-- 테두리 -->
  <ellipse cx="30" cy="32" rx="17" ry="22" fill="none" stroke="#900010" stroke-width="0.8" opacity="0.5"/>
</svg>
